<svg viewBox="0 0 64 64" xmlns="http://www.w3.org/2000/svg">
  <defs>
    <linearGradient id="h" x1="0" y1="1" x2="0.6" y2="0">
      <stop offset="0%" stop-color="#00b140"/>
      <stop offset="55%" stop-color="#39ff14"/>
      <stop offset="100%" stop-color="#14f195"/>
    </linearGradient>
  </defs>
  <!-- Horns -->
  <path d="M23 29 C15 27 9 21 7 10 C6.7 7.6 8.2 6.8 9.5 8.8 C13 16 18 21.5 26 24 C28 24.8 27 28.4 25 29 Z" fill="url(#h)"/>
  <path d="M41 29 C49 27 55 21 57 10 C57.3 7.6 55.8 6.8 54.5 8.8 C51 16 46 21.5 38 24 C36 24.8 37 28.4 39 29 Z" fill="url(#h)"/>
  <!-- Head -->
  <path d="M21 23 L32 20 L43 23 L48 31 L44 40 L38 52 L35 56 L29 56 L26 52 L20 40 L16 31 Z" fill="#0d0d0d" stroke="rgba(57,255,20,0.4)" stroke-width="1"/>
  <!-- Eyes -->
  <path d="M22 33 L29 31.5 L28 35 L23 35.5 Z" fill="#ff1e1e"/>
  <path d="M42 33 L35 31.5 L36 35 L41 35.5 Z" fill="#ff1e1e"/>
  <!-- Muzzle -->
  <ellipse cx="29.5" cy="49" rx="1.4" ry="2" fill="#030303"/>
  <ellipse cx="34.5" cy="49" rx="1.4" ry="2" fill="#030303"/>
</svg>
